<mxfile host="Electron" agent="Mozilla/5.0 (Windows NT 10.0; Win64; x64) AppleWebKit/537.36 (KHTML, like Gecko) draw.io/24.7.5 Chrome/126.0.6478.183 Electron/31.3.0 Safari/537.36" version="24.7.5">
  <diagram name="Page-1" id="R1P1iKcJD7yiHj85TyFV">
    <mxGraphModel dx="1658" dy="828" grid="1" gridSize="10" guides="1" tooltips="1" connect="1" arrows="1" fold="1" page="1" pageScale="1" pageWidth="827" pageHeight="1169" math="0" shadow="0">
      <root>
        <mxCell id="0" />
        <mxCell id="1" parent="0" />
        <mxCell id="o2rhCC7C27m-onlKAYk0-3" value="" style="image;html=1;image=img/lib/clip_art/computers/Database_128x128.png" vertex="1" parent="1">
          <mxGeometry x="290" y="30" width="80" height="80" as="geometry" />
        </mxCell>
        <mxCell id="o2rhCC7C27m-onlKAYk0-54" style="edgeStyle=orthogonalEdgeStyle;rounded=0;orthogonalLoop=1;jettySize=auto;html=1;entryX=0;entryY=0.5;entryDx=0;entryDy=0;" edge="1" parent="1" source="o2rhCC7C27m-onlKAYk0-26" target="o2rhCC7C27m-onlKAYk0-53">
          <mxGeometry relative="1" as="geometry" />
        </mxCell>
        <mxCell id="o2rhCC7C27m-onlKAYk0-26" value="1ère étape" style="swimlane;whiteSpace=wrap;html=1;fillColor=#FFD966;" vertex="1" parent="1">
          <mxGeometry x="10" y="10" width="450" height="270" as="geometry">
            <mxRectangle x="30" y="10" width="100" height="30" as="alternateBounds" />
          </mxGeometry>
        </mxCell>
        <mxCell id="o2rhCC7C27m-onlKAYk0-11" value="Récupère les données" style="text;html=1;align=center;verticalAlign=middle;whiteSpace=wrap;rounded=0;rotation=0;" vertex="1" parent="o2rhCC7C27m-onlKAYk0-26">
          <mxGeometry x="240" y="130" width="80" height="30" as="geometry" />
        </mxCell>
        <mxCell id="o2rhCC7C27m-onlKAYk0-40" value="" style="endArrow=classic;html=1;rounded=0;exitX=1;exitY=0;exitDx=0;exitDy=0;" edge="1" parent="o2rhCC7C27m-onlKAYk0-26" source="o2rhCC7C27m-onlKAYk0-8">
          <mxGeometry width="50" height="50" relative="1" as="geometry">
            <mxPoint x="150" y="170" as="sourcePoint" />
            <mxPoint x="380" y="220" as="targetPoint" />
            <Array as="points">
              <mxPoint x="150" y="220" />
            </Array>
          </mxGeometry>
        </mxCell>
        <mxCell id="o2rhCC7C27m-onlKAYk0-19" value="Actor" style="shape=umlActor;verticalLabelPosition=bottom;verticalAlign=top;html=1;outlineConnect=0;" vertex="1" parent="o2rhCC7C27m-onlKAYk0-26">
          <mxGeometry x="20" y="150" width="30" height="60" as="geometry" />
        </mxCell>
        <mxCell id="o2rhCC7C27m-onlKAYk0-20" value="joueur&lt;div&gt;initialisé&lt;/div&gt;" style="rounded=0;whiteSpace=wrap;html=1;" vertex="1" parent="o2rhCC7C27m-onlKAYk0-26">
          <mxGeometry x="10" y="210" width="55" height="50" as="geometry" />
        </mxCell>
        <mxCell id="o2rhCC7C27m-onlKAYk0-1" value="lancement du jeu" style="rounded=0;whiteSpace=wrap;html=1;" vertex="1" parent="1">
          <mxGeometry x="20" y="40" width="120" height="60" as="geometry" />
        </mxCell>
        <mxCell id="o2rhCC7C27m-onlKAYk0-2" value="" style="endArrow=classic;html=1;rounded=0;entryX=0;entryY=0.5;entryDx=0;entryDy=0;" edge="1" parent="1" target="o2rhCC7C27m-onlKAYk0-3">
          <mxGeometry width="50" height="50" relative="1" as="geometry">
            <mxPoint x="140" y="70" as="sourcePoint" />
            <mxPoint x="220" y="70" as="targetPoint" />
          </mxGeometry>
        </mxCell>
        <mxCell id="o2rhCC7C27m-onlKAYk0-5" value="" style="endArrow=classic;html=1;rounded=0;" edge="1" parent="1" source="o2rhCC7C27m-onlKAYk0-1">
          <mxGeometry width="50" height="50" relative="1" as="geometry">
            <mxPoint x="80" y="150" as="sourcePoint" />
            <mxPoint x="180" y="130" as="targetPoint" />
          </mxGeometry>
        </mxCell>
        <mxCell id="o2rhCC7C27m-onlKAYk0-6" value="" style="sketch=0;outlineConnect=0;fontColor=#232F3E;gradientColor=none;fillColor=#232F3D;strokeColor=none;dashed=0;verticalLabelPosition=bottom;verticalAlign=top;align=center;html=1;fontSize=12;fontStyle=0;aspect=fixed;pointerEvents=1;shape=mxgraph.aws4.source_code;" vertex="1" parent="1">
          <mxGeometry x="180" y="120" width="49.69" height="68" as="geometry" />
        </mxCell>
        <mxCell id="o2rhCC7C27m-onlKAYk0-7" value="Démarrage database" style="text;html=1;align=center;verticalAlign=middle;whiteSpace=wrap;rounded=0;" vertex="1" parent="1">
          <mxGeometry x="180" y="40" width="60" height="30" as="geometry" />
        </mxCell>
        <mxCell id="o2rhCC7C27m-onlKAYk0-8" value="Démarrage fichiers" style="text;html=1;align=center;verticalAlign=middle;whiteSpace=wrap;rounded=0;" vertex="1" parent="1">
          <mxGeometry x="100" y="120" width="60" height="30" as="geometry" />
        </mxCell>
        <mxCell id="o2rhCC7C27m-onlKAYk0-9" value="" style="endArrow=classic;html=1;rounded=0;" edge="1" parent="1" source="o2rhCC7C27m-onlKAYk0-6">
          <mxGeometry width="50" height="50" relative="1" as="geometry">
            <mxPoint x="250" y="170" as="sourcePoint" />
            <mxPoint x="330" y="110" as="targetPoint" />
            <Array as="points">
              <mxPoint x="330" y="110" />
            </Array>
          </mxGeometry>
        </mxCell>
        <mxCell id="o2rhCC7C27m-onlKAYk0-15" value="" style="sketch=0;outlineConnect=0;fontColor=#232F3E;gradientColor=none;fillColor=#232F3D;strokeColor=none;dashed=0;verticalLabelPosition=bottom;verticalAlign=top;align=center;html=1;fontSize=12;fontStyle=0;aspect=fixed;pointerEvents=1;shape=mxgraph.aws4.source_code;" vertex="1" parent="1">
          <mxGeometry x="400" y="160" width="49.69" height="68" as="geometry" />
        </mxCell>
        <mxCell id="o2rhCC7C27m-onlKAYk0-18" value="" style="endArrow=classic;html=1;rounded=0;" edge="1" parent="1">
          <mxGeometry width="50" height="50" relative="1" as="geometry">
            <mxPoint x="40" y="100" as="sourcePoint" />
            <mxPoint x="40" y="150" as="targetPoint" />
          </mxGeometry>
        </mxCell>
        <mxCell id="o2rhCC7C27m-onlKAYk0-22" value="database.py" style="text;html=1;align=center;verticalAlign=middle;whiteSpace=wrap;rounded=0;" vertex="1" parent="1">
          <mxGeometry x="175" y="190" width="60" height="30" as="geometry" />
        </mxCell>
        <mxCell id="o2rhCC7C27m-onlKAYk0-23" value="pokemon.py" style="text;html=1;align=center;verticalAlign=middle;whiteSpace=wrap;rounded=0;" vertex="1" parent="1">
          <mxGeometry x="395" y="228" width="60" height="30" as="geometry" />
        </mxCell>
        <mxCell id="o2rhCC7C27m-onlKAYk0-29" value="Actor" style="shape=umlActor;verticalLabelPosition=bottom;verticalAlign=top;html=1;outlineConnect=0;" vertex="1" parent="1">
          <mxGeometry x="520" y="40" width="30" height="60" as="geometry" />
        </mxCell>
        <mxCell id="o2rhCC7C27m-onlKAYk0-30" value="joueur" style="rounded=0;whiteSpace=wrap;html=1;" vertex="1" parent="1">
          <mxGeometry x="510" y="100" width="50" height="30" as="geometry" />
        </mxCell>
        <mxCell id="o2rhCC7C27m-onlKAYk0-31" value="" style="endArrow=classic;html=1;rounded=0;" edge="1" parent="1">
          <mxGeometry width="50" height="50" relative="1" as="geometry">
            <mxPoint x="560" y="110" as="sourcePoint" />
            <mxPoint x="620" y="110" as="targetPoint" />
          </mxGeometry>
        </mxCell>
        <mxCell id="o2rhCC7C27m-onlKAYk0-35" value="" style="endArrow=classic;html=1;rounded=0;" edge="1" parent="1">
          <mxGeometry width="50" height="50" relative="1" as="geometry">
            <mxPoint x="650" y="110" as="sourcePoint" />
            <mxPoint x="740" y="110" as="targetPoint" />
          </mxGeometry>
        </mxCell>
        <mxCell id="o2rhCC7C27m-onlKAYk0-36" value="rencontre" style="text;html=1;align=center;verticalAlign=middle;whiteSpace=wrap;rounded=0;" vertex="1" parent="1">
          <mxGeometry x="560" y="80" width="60" height="30" as="geometry" />
        </mxCell>
        <mxCell id="o2rhCC7C27m-onlKAYk0-39" value="" style="endArrow=classic;html=1;rounded=0;" edge="1" parent="1" target="o2rhCC7C27m-onlKAYk0-6">
          <mxGeometry width="50" height="50" relative="1" as="geometry">
            <mxPoint x="395" y="200" as="sourcePoint" />
            <mxPoint x="360" y="210" as="targetPoint" />
          </mxGeometry>
        </mxCell>
        <mxCell id="o2rhCC7C27m-onlKAYk0-41" value="interaction" style="rounded=0;whiteSpace=wrap;html=1;" vertex="1" parent="1">
          <mxGeometry x="740" y="90" width="60" height="30" as="geometry" />
        </mxCell>
        <mxCell id="o2rhCC7C27m-onlKAYk0-42" value="" style="endArrow=classic;html=1;rounded=0;" edge="1" parent="1">
          <mxGeometry width="50" height="50" relative="1" as="geometry">
            <mxPoint x="769.5" y="120" as="sourcePoint" />
            <mxPoint x="770" y="180" as="targetPoint" />
          </mxGeometry>
        </mxCell>
        <mxCell id="o2rhCC7C27m-onlKAYk0-43" value="appelle" style="text;html=1;align=center;verticalAlign=middle;whiteSpace=wrap;rounded=0;" vertex="1" parent="1">
          <mxGeometry x="760" y="140" width="60" height="30" as="geometry" />
        </mxCell>
        <mxCell id="o2rhCC7C27m-onlKAYk0-47" value="" style="endArrow=classic;html=1;rounded=0;" edge="1" parent="1">
          <mxGeometry width="50" height="50" relative="1" as="geometry">
            <mxPoint x="749" y="224.5" as="sourcePoint" />
            <mxPoint x="660" y="225" as="targetPoint" />
          </mxGeometry>
        </mxCell>
        <mxCell id="o2rhCC7C27m-onlKAYk0-52" value="initialise" style="text;html=1;align=center;verticalAlign=middle;whiteSpace=wrap;rounded=0;" vertex="1" parent="1">
          <mxGeometry x="670" y="198" width="60" height="30" as="geometry" />
        </mxCell>
        <mxCell id="o2rhCC7C27m-onlKAYk0-53" value="2ème étape" style="swimlane;whiteSpace=wrap;html=1;fillColor=#FFD966;" vertex="1" parent="1">
          <mxGeometry x="500" y="10" width="320" height="270" as="geometry" />
        </mxCell>
        <mxCell id="o2rhCC7C27m-onlKAYk0-32" value="Actor" style="shape=umlActor;verticalLabelPosition=bottom;verticalAlign=top;html=1;outlineConnect=0;rotation=0;" vertex="1" parent="o2rhCC7C27m-onlKAYk0-53">
          <mxGeometry x="120" y="30" width="30" height="60" as="geometry" />
        </mxCell>
        <mxCell id="o2rhCC7C27m-onlKAYk0-33" value="dresseur" style="whiteSpace=wrap;html=1;verticalAlign=top;" vertex="1" parent="o2rhCC7C27m-onlKAYk0-53">
          <mxGeometry x="110" y="90" width="50" height="20" as="geometry" />
        </mxCell>
        <mxCell id="o2rhCC7C27m-onlKAYk0-46" value="pokemon.py" style="text;html=1;align=center;verticalAlign=middle;whiteSpace=wrap;rounded=0;" vertex="1" parent="o2rhCC7C27m-onlKAYk0-53">
          <mxGeometry x="240.77" y="230" width="60" height="30" as="geometry" />
        </mxCell>
        <mxCell id="o2rhCC7C27m-onlKAYk0-49" value="Attack" style="shape=note;whiteSpace=wrap;html=1;backgroundOutline=1;darkOpacity=0.05;" vertex="1" parent="o2rhCC7C27m-onlKAYk0-53">
          <mxGeometry x="90" y="190" width="60" height="70" as="geometry" />
        </mxCell>
        <mxCell id="o2rhCC7C27m-onlKAYk0-48" value="Pokemon" style="shape=note;whiteSpace=wrap;html=1;backgroundOutline=1;darkOpacity=0.05;" vertex="1" parent="o2rhCC7C27m-onlKAYk0-53">
          <mxGeometry x="90" y="120" width="60" height="70" as="geometry" />
        </mxCell>
        <mxCell id="o2rhCC7C27m-onlKAYk0-37" value="" style="sketch=0;outlineConnect=0;fontColor=#232F3E;gradientColor=none;fillColor=#232F3D;strokeColor=none;dashed=0;verticalLabelPosition=bottom;verticalAlign=top;align=center;html=1;fontSize=12;fontStyle=0;aspect=fixed;pointerEvents=1;shape=mxgraph.aws4.source_code;" vertex="1" parent="o2rhCC7C27m-onlKAYk0-53">
          <mxGeometry x="248.85000000000002" y="170" width="43.84" height="60" as="geometry" />
        </mxCell>
        <mxCell id="o2rhCC7C27m-onlKAYk0-118" value="" style="endArrow=classic;html=1;rounded=0;entryX=0.92;entryY=0;entryDx=0;entryDy=0;entryPerimeter=0;" edge="1" parent="o2rhCC7C27m-onlKAYk0-53" target="o2rhCC7C27m-onlKAYk0-112">
          <mxGeometry width="50" height="50" relative="1" as="geometry">
            <mxPoint y="270" as="sourcePoint" />
            <mxPoint x="50" y="220" as="targetPoint" />
          </mxGeometry>
        </mxCell>
        <mxCell id="o2rhCC7C27m-onlKAYk0-56" value="Attack" style="shape=note;whiteSpace=wrap;html=1;backgroundOutline=1;darkOpacity=0.05;" vertex="1" parent="1">
          <mxGeometry x="50.879999999999995" y="420" width="60" height="70" as="geometry" />
        </mxCell>
        <mxCell id="o2rhCC7C27m-onlKAYk0-57" value="Pokemon" style="shape=note;whiteSpace=wrap;html=1;backgroundOutline=1;darkOpacity=0.05;" vertex="1" parent="1">
          <mxGeometry x="50.879999999999995" y="350" width="60" height="70" as="geometry" />
        </mxCell>
        <mxCell id="o2rhCC7C27m-onlKAYk0-58" value="" style="endArrow=classic;html=1;rounded=0;" edge="1" parent="1">
          <mxGeometry width="50" height="50" relative="1" as="geometry">
            <mxPoint x="115.31" y="615" as="sourcePoint" />
            <mxPoint x="195.31" y="615" as="targetPoint" />
          </mxGeometry>
        </mxCell>
        <mxCell id="o2rhCC7C27m-onlKAYk0-65" value="" style="group" vertex="1" connectable="0" parent="1">
          <mxGeometry x="540" y="480" width="110" height="130" as="geometry" />
        </mxCell>
        <mxCell id="o2rhCC7C27m-onlKAYk0-59" value="Actor" style="shape=umlActor;verticalLabelPosition=bottom;verticalAlign=top;html=1;outlineConnect=0;" vertex="1" parent="o2rhCC7C27m-onlKAYk0-65">
          <mxGeometry x="5" width="30" height="60" as="geometry" />
        </mxCell>
        <mxCell id="o2rhCC7C27m-onlKAYk0-60" value="Actor" style="shape=umlActor;verticalLabelPosition=bottom;verticalAlign=top;html=1;outlineConnect=0;rotation=0;" vertex="1" parent="o2rhCC7C27m-onlKAYk0-65">
          <mxGeometry x="70" width="30" height="60" as="geometry" />
        </mxCell>
        <mxCell id="o2rhCC7C27m-onlKAYk0-61" value="dresseur" style="rounded=0;whiteSpace=wrap;html=1;" vertex="1" parent="o2rhCC7C27m-onlKAYk0-65">
          <mxGeometry x="60" y="60" width="50" height="30" as="geometry" />
        </mxCell>
        <mxCell id="o2rhCC7C27m-onlKAYk0-62" value="joueur" style="rounded=0;whiteSpace=wrap;html=1;" vertex="1" parent="o2rhCC7C27m-onlKAYk0-65">
          <mxGeometry y="60" width="40" height="30" as="geometry" />
        </mxCell>
        <mxCell id="o2rhCC7C27m-onlKAYk0-63" value="VS" style="text;html=1;align=center;verticalAlign=middle;whiteSpace=wrap;rounded=0;" vertex="1" parent="o2rhCC7C27m-onlKAYk0-65">
          <mxGeometry x="20" y="20" width="60" height="30" as="geometry" />
        </mxCell>
        <mxCell id="o2rhCC7C27m-onlKAYk0-64" value="Système de combats" style="rounded=0;whiteSpace=wrap;html=1;" vertex="1" parent="o2rhCC7C27m-onlKAYk0-65">
          <mxGeometry y="90" width="110" height="40" as="geometry" />
        </mxCell>
        <mxCell id="o2rhCC7C27m-onlKAYk0-69" value="Combat" style="shape=note;whiteSpace=wrap;html=1;backgroundOutline=1;darkOpacity=0.05;" vertex="1" parent="1">
          <mxGeometry x="195.31" y="570" width="60" height="70" as="geometry" />
        </mxCell>
        <mxCell id="o2rhCC7C27m-onlKAYk0-70" value="" style="sketch=0;outlineConnect=0;fontColor=#232F3E;gradientColor=none;fillColor=#232F3D;strokeColor=none;dashed=0;verticalLabelPosition=bottom;verticalAlign=top;align=center;html=1;fontSize=12;fontStyle=0;aspect=fixed;pointerEvents=1;shape=mxgraph.aws4.source_code;" vertex="1" parent="1">
          <mxGeometry x="59.73000000000002" y="570" width="51.15" height="70" as="geometry" />
        </mxCell>
        <mxCell id="o2rhCC7C27m-onlKAYk0-71" value="combat.py" style="text;html=1;align=center;verticalAlign=middle;whiteSpace=wrap;rounded=0;" vertex="1" parent="1">
          <mxGeometry x="55.31" y="640" width="60" height="30" as="geometry" />
        </mxCell>
        <mxCell id="o2rhCC7C27m-onlKAYk0-72" value="initialise" style="text;html=1;align=center;verticalAlign=middle;whiteSpace=wrap;rounded=0;" vertex="1" parent="1">
          <mxGeometry x="111.31" y="590" width="60" height="30" as="geometry" />
        </mxCell>
        <mxCell id="o2rhCC7C27m-onlKAYk0-73" value="" style="endArrow=classic;html=1;rounded=0;" edge="1" parent="1">
          <mxGeometry width="50" height="50" relative="1" as="geometry">
            <mxPoint x="80.31" y="500" as="sourcePoint" />
            <mxPoint x="80.31" y="560" as="targetPoint" />
          </mxGeometry>
        </mxCell>
        <mxCell id="o2rhCC7C27m-onlKAYk0-75" value="appelle une fois terminé" style="text;html=1;align=center;verticalAlign=middle;whiteSpace=wrap;rounded=0;" vertex="1" parent="1">
          <mxGeometry x="20" y="510" width="60" height="30" as="geometry" />
        </mxCell>
        <mxCell id="o2rhCC7C27m-onlKAYk0-76" value="" style="endArrow=classic;html=1;rounded=0;" edge="1" parent="1">
          <mxGeometry width="50" height="50" relative="1" as="geometry">
            <mxPoint x="210" y="570" as="sourcePoint" />
            <mxPoint x="210" y="510" as="targetPoint" />
          </mxGeometry>
        </mxCell>
        <mxCell id="o2rhCC7C27m-onlKAYk0-77" value="méthode run()" style="rounded=0;whiteSpace=wrap;html=1;" vertex="1" parent="1">
          <mxGeometry x="175" y="480" width="70" height="30" as="geometry" />
        </mxCell>
        <mxCell id="o2rhCC7C27m-onlKAYk0-78" value="" style="endArrow=classic;html=1;rounded=0;" edge="1" parent="1">
          <mxGeometry width="50" height="50" relative="1" as="geometry">
            <mxPoint x="210" y="480" as="sourcePoint" />
            <mxPoint x="290" y="430" as="targetPoint" />
            <Array as="points">
              <mxPoint x="210" y="430" />
            </Array>
          </mxGeometry>
        </mxCell>
        <mxCell id="o2rhCC7C27m-onlKAYk0-79" value="appelle" style="text;html=1;align=center;verticalAlign=middle;whiteSpace=wrap;rounded=0;" vertex="1" parent="1">
          <mxGeometry x="160" y="530" width="60" height="30" as="geometry" />
        </mxCell>
        <mxCell id="o2rhCC7C27m-onlKAYk0-80" value="lance la boucle" style="text;html=1;align=center;verticalAlign=middle;whiteSpace=wrap;rounded=0;" vertex="1" parent="1">
          <mxGeometry x="210" y="400" width="60" height="30" as="geometry" />
        </mxCell>
        <mxCell id="o2rhCC7C27m-onlKAYk0-97" value="" style="endArrow=none;html=1;rounded=0;" edge="1" parent="1">
          <mxGeometry width="50" height="50" relative="1" as="geometry">
            <mxPoint x="459" y="870" as="sourcePoint" />
            <mxPoint x="459" y="870" as="targetPoint" />
          </mxGeometry>
        </mxCell>
        <mxCell id="o2rhCC7C27m-onlKAYk0-113" style="edgeStyle=orthogonalEdgeStyle;rounded=0;orthogonalLoop=1;jettySize=auto;html=1;" edge="1" parent="1">
          <mxGeometry relative="1" as="geometry">
            <mxPoint x="580" y="410" as="targetPoint" />
            <mxPoint x="510" y="410" as="sourcePoint" />
          </mxGeometry>
        </mxCell>
        <mxCell id="o2rhCC7C27m-onlKAYk0-112" value="3ème étape" style="swimlane;whiteSpace=wrap;html=1;fillColor=#FFD966;" vertex="1" parent="1">
          <mxGeometry x="10" y="320" width="500" height="400" as="geometry" />
        </mxCell>
        <mxCell id="o2rhCC7C27m-onlKAYk0-106" value="Non" style="text;html=1;align=center;verticalAlign=middle;whiteSpace=wrap;rounded=0;" vertex="1" parent="o2rhCC7C27m-onlKAYk0-112">
          <mxGeometry x="441" y="290" width="60" height="30" as="geometry" />
        </mxCell>
        <mxCell id="o2rhCC7C27m-onlKAYk0-86" value="" style="endArrow=none;html=1;rounded=0;" edge="1" parent="o2rhCC7C27m-onlKAYk0-112">
          <mxGeometry width="50" height="50" relative="1" as="geometry">
            <mxPoint x="430" y="260" as="sourcePoint" />
            <mxPoint x="430" y="260" as="targetPoint" />
          </mxGeometry>
        </mxCell>
        <mxCell id="o2rhCC7C27m-onlKAYk0-87" value="" style="endArrow=none;html=1;rounded=0;" edge="1" parent="o2rhCC7C27m-onlKAYk0-112">
          <mxGeometry width="50" height="50" relative="1" as="geometry">
            <mxPoint x="290" y="70" as="sourcePoint" />
            <mxPoint x="490" y="70" as="targetPoint" />
          </mxGeometry>
        </mxCell>
        <mxCell id="o2rhCC7C27m-onlKAYk0-88" value="" style="endArrow=none;html=1;rounded=0;" edge="1" parent="o2rhCC7C27m-onlKAYk0-112">
          <mxGeometry width="50" height="50" relative="1" as="geometry">
            <mxPoint x="290" y="390" as="sourcePoint" />
            <mxPoint x="290" y="30" as="targetPoint" />
          </mxGeometry>
        </mxCell>
        <mxCell id="o2rhCC7C27m-onlKAYk0-89" value="" style="endArrow=none;html=1;rounded=0;" edge="1" parent="o2rhCC7C27m-onlKAYk0-112">
          <mxGeometry width="50" height="50" relative="1" as="geometry">
            <mxPoint x="290" y="270" as="sourcePoint" />
            <mxPoint x="490" y="270" as="targetPoint" />
          </mxGeometry>
        </mxCell>
        <mxCell id="o2rhCC7C27m-onlKAYk0-90" value="" style="endArrow=none;html=1;rounded=0;" edge="1" parent="o2rhCC7C27m-onlKAYk0-112">
          <mxGeometry width="50" height="50" relative="1" as="geometry">
            <mxPoint x="490" y="390" as="sourcePoint" />
            <mxPoint x="490" y="30" as="targetPoint" />
          </mxGeometry>
        </mxCell>
        <mxCell id="o2rhCC7C27m-onlKAYk0-91" value="" style="endArrow=none;html=1;rounded=0;" edge="1" parent="o2rhCC7C27m-onlKAYk0-112">
          <mxGeometry width="50" height="50" relative="1" as="geometry">
            <mxPoint x="330" y="230" as="sourcePoint" />
            <mxPoint x="490" y="230" as="targetPoint" />
          </mxGeometry>
        </mxCell>
        <mxCell id="o2rhCC7C27m-onlKAYk0-92" value="" style="endArrow=none;html=1;rounded=0;" edge="1" parent="o2rhCC7C27m-onlKAYk0-112">
          <mxGeometry width="50" height="50" relative="1" as="geometry">
            <mxPoint x="330" y="230" as="sourcePoint" />
            <mxPoint x="330" y="70" as="targetPoint" />
          </mxGeometry>
        </mxCell>
        <mxCell id="o2rhCC7C27m-onlKAYk0-94" value="Le Pokémon le plus rapide attaque" style="text;html=1;align=center;verticalAlign=middle;whiteSpace=wrap;rounded=0;" vertex="1" parent="o2rhCC7C27m-onlKAYk0-112">
          <mxGeometry x="348" y="90" width="111" height="40" as="geometry" />
        </mxCell>
        <mxCell id="o2rhCC7C27m-onlKAYk0-95" value="Le second fait de même" style="text;html=1;align=center;verticalAlign=middle;whiteSpace=wrap;rounded=0;" vertex="1" parent="o2rhCC7C27m-onlKAYk0-112">
          <mxGeometry x="365" y="170" width="84" height="30" as="geometry" />
        </mxCell>
        <mxCell id="o2rhCC7C27m-onlKAYk0-96" value="Toute une équipe est KO ?" style="text;html=1;align=center;verticalAlign=middle;whiteSpace=wrap;rounded=0;" vertex="1" parent="o2rhCC7C27m-onlKAYk0-112">
          <mxGeometry x="345" y="230" width="110" height="30" as="geometry" />
        </mxCell>
        <mxCell id="o2rhCC7C27m-onlKAYk0-98" value="" style="endArrow=none;html=1;rounded=0;" edge="1" parent="o2rhCC7C27m-onlKAYk0-112">
          <mxGeometry width="50" height="50" relative="1" as="geometry">
            <mxPoint x="290" y="30" as="sourcePoint" />
            <mxPoint x="490" y="30" as="targetPoint" />
          </mxGeometry>
        </mxCell>
        <mxCell id="o2rhCC7C27m-onlKAYk0-99" value="" style="endArrow=none;html=1;rounded=0;" edge="1" parent="o2rhCC7C27m-onlKAYk0-112">
          <mxGeometry width="50" height="50" relative="1" as="geometry">
            <mxPoint x="289.5" y="269" as="sourcePoint" />
            <mxPoint x="490" y="270" as="targetPoint" />
            <Array as="points">
              <mxPoint x="390" y="310" />
            </Array>
          </mxGeometry>
        </mxCell>
        <mxCell id="o2rhCC7C27m-onlKAYk0-100" value="" style="endArrow=none;html=1;rounded=0;" edge="1" parent="o2rhCC7C27m-onlKAYk0-112">
          <mxGeometry width="50" height="50" relative="1" as="geometry">
            <mxPoint x="290" y="390" as="sourcePoint" />
            <mxPoint x="490" y="390" as="targetPoint" />
          </mxGeometry>
        </mxCell>
        <mxCell id="o2rhCC7C27m-onlKAYk0-101" value="" style="endArrow=none;html=1;rounded=0;" edge="1" parent="o2rhCC7C27m-onlKAYk0-112">
          <mxGeometry width="50" height="50" relative="1" as="geometry">
            <mxPoint x="490" y="309" as="sourcePoint" />
            <mxPoint x="290.09000000000003" y="309" as="targetPoint" />
          </mxGeometry>
        </mxCell>
        <mxCell id="o2rhCC7C27m-onlKAYk0-103" value="" style="endArrow=none;html=1;rounded=0;" edge="1" parent="o2rhCC7C27m-onlKAYk0-112">
          <mxGeometry width="50" height="50" relative="1" as="geometry">
            <mxPoint x="290" y="350" as="sourcePoint" />
            <mxPoint x="490" y="350" as="targetPoint" />
          </mxGeometry>
        </mxCell>
        <mxCell id="o2rhCC7C27m-onlKAYk0-104" value="Victoire ?" style="text;html=1;align=center;verticalAlign=middle;whiteSpace=wrap;rounded=0;" vertex="1" parent="o2rhCC7C27m-onlKAYk0-112">
          <mxGeometry x="360" y="270" width="60" height="30" as="geometry" />
        </mxCell>
        <mxCell id="o2rhCC7C27m-onlKAYk0-105" value="Oui" style="text;html=1;align=center;verticalAlign=middle;whiteSpace=wrap;rounded=0;" vertex="1" parent="o2rhCC7C27m-onlKAYk0-112">
          <mxGeometry x="280" y="280" width="60" height="30" as="geometry" />
        </mxCell>
        <mxCell id="o2rhCC7C27m-onlKAYk0-107" value="" style="endArrow=none;html=1;rounded=0;" edge="1" parent="o2rhCC7C27m-onlKAYk0-112">
          <mxGeometry width="50" height="50" relative="1" as="geometry">
            <mxPoint x="390" y="350" as="sourcePoint" />
            <mxPoint x="390" y="310" as="targetPoint" />
          </mxGeometry>
        </mxCell>
        <mxCell id="o2rhCC7C27m-onlKAYk0-108" value="Reset du jeu" style="text;html=1;align=center;verticalAlign=middle;whiteSpace=wrap;rounded=0;" vertex="1" parent="o2rhCC7C27m-onlKAYk0-112">
          <mxGeometry x="400" y="320" width="80" height="30" as="geometry" />
        </mxCell>
        <mxCell id="o2rhCC7C27m-onlKAYk0-109" value="Retour sur la carte" style="text;html=1;align=center;verticalAlign=middle;whiteSpace=wrap;rounded=0;" vertex="1" parent="o2rhCC7C27m-onlKAYk0-112">
          <mxGeometry x="290" y="350" width="200" height="40" as="geometry" />
        </mxCell>
        <mxCell id="o2rhCC7C27m-onlKAYk0-110" value="Début du tour" style="text;html=1;align=center;verticalAlign=middle;whiteSpace=wrap;rounded=0;" vertex="1" parent="o2rhCC7C27m-onlKAYk0-112">
          <mxGeometry x="290" y="30" width="200" height="40" as="geometry" />
        </mxCell>
        <mxCell id="o2rhCC7C27m-onlKAYk0-111" value="" style="endArrow=none;html=1;rounded=0;" edge="1" parent="o2rhCC7C27m-onlKAYk0-112">
          <mxGeometry width="50" height="50" relative="1" as="geometry">
            <mxPoint x="330" y="150" as="sourcePoint" />
            <mxPoint x="490" y="150" as="targetPoint" />
          </mxGeometry>
        </mxCell>
        <mxCell id="o2rhCC7C27m-onlKAYk0-114" value="4ème étape" style="swimlane;whiteSpace=wrap;html=1;fillColor=#FFD966;" vertex="1" parent="1">
          <mxGeometry x="580" y="320" width="200" height="140" as="geometry" />
        </mxCell>
        <mxCell id="o2rhCC7C27m-onlKAYk0-116" value="" style="sketch=0;pointerEvents=1;shadow=0;dashed=0;html=1;strokeColor=none;fillColor=#DF8C42;labelPosition=center;verticalLabelPosition=bottom;verticalAlign=top;align=center;outlineConnect=0;shape=mxgraph.veeam2.restored;" vertex="1" parent="o2rhCC7C27m-onlKAYk0-114">
          <mxGeometry x="49" y="30" width="101" height="100" as="geometry" />
        </mxCell>
        <mxCell id="o2rhCC7C27m-onlKAYk0-117" value="Étape 2" style="text;html=1;align=center;verticalAlign=middle;whiteSpace=wrap;rounded=0;" vertex="1" parent="o2rhCC7C27m-onlKAYk0-114">
          <mxGeometry x="82" y="67.5" width="35" height="25" as="geometry" />
        </mxCell>
        <mxCell id="o2rhCC7C27m-onlKAYk0-115" value="répéter étape 2" style="text;html=1;align=center;verticalAlign=middle;whiteSpace=wrap;rounded=0;" vertex="1" parent="1">
          <mxGeometry x="520" y="380" width="60" height="30" as="geometry" />
        </mxCell>
        <mxCell id="o2rhCC7C27m-onlKAYk0-119" value="" style="shape=note;whiteSpace=wrap;html=1;backgroundOutline=1;darkOpacity=0.05;" vertex="1" parent="1">
          <mxGeometry x="530" y="620" width="50" height="60" as="geometry" />
        </mxCell>
        <mxCell id="o2rhCC7C27m-onlKAYk0-120" value="= objets" style="text;html=1;align=center;verticalAlign=middle;whiteSpace=wrap;rounded=0;" vertex="1" parent="1">
          <mxGeometry x="580" y="650" width="60" height="30" as="geometry" />
        </mxCell>
        <mxCell id="o2rhCC7C27m-onlKAYk0-121" value="" style="sketch=0;outlineConnect=0;fontColor=#232F3E;gradientColor=none;fillColor=#232F3D;strokeColor=none;dashed=0;verticalLabelPosition=bottom;verticalAlign=top;align=center;html=1;fontSize=12;fontStyle=0;aspect=fixed;pointerEvents=1;shape=mxgraph.aws4.source_code;" vertex="1" parent="1">
          <mxGeometry x="638.07" y="620" width="43.85" height="60" as="geometry" />
        </mxCell>
        <mxCell id="o2rhCC7C27m-onlKAYk0-122" value="= fichiers" style="text;html=1;align=center;verticalAlign=middle;whiteSpace=wrap;rounded=0;" vertex="1" parent="1">
          <mxGeometry x="682" y="650" width="60" height="30" as="geometry" />
        </mxCell>
      </root>
    </mxGraphModel>
  </diagram>
</mxfile>
